<svg viewBox="0 0 16 16" fill="none" xmlns="http://www.w3.org/2000/svg">
<path fill-rule="evenodd" clip-rule="evenodd" d="M8 0C12.4153 0 16 3.58467 16 8C16 12.4153 12.4153 16 8 16C3.58467 16 0 12.4153 0 8C0 3.58467 3.58467 0 8 0ZM9.70467 10.6667H6.29467C6.65867 12.3067 7.25533 13.4093 8 14.496C8.796 13.3353 9.36067 12.2227 9.70467 10.6667ZM4.93333 10.6667H1.88867C2.71267 12.55 4.358 13.9813 6.392 14.4773C5.69333 13.322 5.20333 12.0387 4.93333 10.6667ZM14.1113 10.6667H11.0667C10.806 11.992 10.3367 13.258 9.61667 14.4627C11.6247 13.954 13.2947 12.5327 14.1113 10.6667ZM4.77467 6.66667H1.46667C1.28867 7.542 1.28867 8.45667 1.46667 9.33333H4.74333C4.664 8.44733 4.676 7.552 4.77467 6.66667ZM9.882 6.66667H6.11733C6.00733 7.55067 5.994 8.448 6.082 9.33333H9.91733C10.006 8.448 9.99133 7.55133 9.882 6.66667ZM14.5333 6.66667H11.2247C11.3233 7.552 11.3353 8.44733 11.2567 9.33333H14.5333C14.7067 8.47667 14.7153 7.568 14.5333 6.66667ZM6.42933 1.514C4.378 2.002 2.718 3.438 1.88867 5.33333H4.99067C5.28067 3.972 5.776 2.67667 6.42933 1.514ZM7.99933 1.482C7.27333 2.662 6.726 3.784 6.35733 5.33333H9.642C9.286 3.836 8.75067 2.70133 7.99933 1.482ZM9.578 1.528C10.2533 2.736 10.7333 4.03467 11.0087 5.33333H14.1113C13.29 3.456 11.6033 2.028 9.578 1.528Z" fill="white"/>
</svg>
